<svg width="92" height="23" viewBox="0 0 92 23" fill="none" xmlns="http://www.w3.org/2000/svg">
<path fill-rule="evenodd" clip-rule="evenodd" d="M90.9286 13.1429C84.2118 6.48008 67.9077 8.17262 70.8631 8.02988C58.7007 -1.52722 45.8195 -2.3497 32.5523 4.47893C20.5314 10.6659 13.8407 15.4499 5.44638 4.34299C2.80789 4.16762 1.80954 4.33619 1.80954 4.33619C1.80954 4.33619 4.64725 7.88713 7.36724 9.30778C10.6407 11.0166 15.8487 11.6801 19.4946 11.1893C22.3187 10.8086 25.9125 9.63678 28.4741 8.17126C33.4398 5.33133 43.6689 0.857297 48.5757 0.927989C53.4826 0.998682 61.9968 2.56072 69.446 9.37847C74.9516 9.37847 86.0308 9.38119 90.9286 13.1429Z" fill="black"/>
<path fill-rule="evenodd" clip-rule="evenodd" d="M67.4047 9.85714C67.4047 9.85714 59.5157 3.01735 52.225 2.7381C61.9665 5.60015 65.1335 9.08885 65.1335 9.08885L31.6666 9.36811L67.4047 9.85714Z" fill="#057A55"/>
<path fill-rule="evenodd" clip-rule="evenodd" d="M91.8014 22.7749C92.2056 22.7749 88.669 22.8925 86.6713 22.957V22.9728C86.4544 22.9742 86.2877 22.9742 86.1564 22.9742L85.3585 23V22.967C85.3002 22.9699 85.2329 22.9728 85.1484 22.9785C85.2671 12.269 68.4964 13.4247 67.8571 13.4677C74.5433 12.8497 85.9886 12.0381 86.6404 22.2358L91.8014 22.7749Z" fill="#057A55"/>
<path fill-rule="evenodd" clip-rule="evenodd" d="M15.8333 21.3571L15.2321 23H0L15.8333 21.3571Z" fill="#057A55"/>
<path d="M26.4066 23H24.1465L26.1434 15.8769C26.1717 15.7901 26.1852 15.6991 26.1852 15.604C26.1852 15.2485 26.0587 15.0694 25.8068 15.0694H22.7707C22.3641 15.0694 22.084 15.3381 21.9304 15.8769L19.9334 23H17.6428L20.5648 12.6218H34.059C34.8925 12.6218 35.3093 13.064 35.3093 13.9499C35.3093 14.3235 35.2291 14.7923 35.0676 15.3563L32.882 23H30.6219L32.6188 15.8769C32.6471 15.7901 32.6606 15.6991 32.6606 15.604C32.6606 15.2485 32.5341 15.0694 32.2823 15.0694H29.245C28.8384 15.0694 28.5583 15.3381 28.4047 15.8769L26.4066 23ZM44.8412 12.6078L44.1375 15.0554H38.9768C38.5352 15.0554 38.2517 15.2443 38.1252 15.6222C37.9987 16 37.7682 16.7795 37.4316 17.9592C37.0533 19.2873 36.8646 20.0122 36.8646 20.1339C36.8646 20.4124 37.0397 20.551 37.3899 20.551H39.7867C40.2351 20.551 40.5186 20.3551 40.6383 19.9646C40.6665 19.9212 40.7366 19.7211 40.8484 19.3657H38.2415L38.9452 16.9181H43.8325L42.424 21.8273C42.3054 22.2359 42.1609 22.5256 41.9926 22.6991C41.8039 22.8894 41.5441 22.986 41.2143 22.986H35.6866C35.2867 22.986 34.958 22.8768 34.6983 22.6599C34.3967 22.408 34.2465 22.0386 34.2465 21.553C34.2465 21.3277 34.2882 21.0674 34.373 20.7721C34.8914 18.8703 35.5499 16.536 36.3485 13.7665C36.4671 13.3677 36.6071 13.0808 36.7686 12.9073C36.9584 12.7072 37.217 12.6078 37.5469 12.6078H44.8412V12.6078ZM48.4047 12.5952L45.4409 22.986H43.1492L46.113 12.5952H48.4047Z" fill="black"/>
<path d="M53.5226 17.5238H50.8576C50.67 17.5238 50.5162 17.4657 50.3952 17.348C50.2742 17.2303 50.2143 17.0619 50.2143 16.8444C50.2143 16.7297 50.2313 16.606 50.2663 16.4734L51.1482 13.1465C51.2455 12.78 51.423 12.5967 51.683 12.5967H54.8455L54.5357 13.7588H52.3207C52.1138 13.7588 51.9872 13.8512 51.9408 14.0374C51.9499 13.9927 51.7644 14.687 51.3823 16.1218C51.3789 16.1382 51.3778 16.1546 51.3778 16.171C51.3778 16.2991 51.4558 16.3632 51.6129 16.3632H53.837L53.5226 17.5238ZM59.1025 13.5785L58.0464 17.5238H54.8975C54.7257 17.5238 54.5968 17.4493 54.5131 17.3018C54.4441 17.1737 54.4102 17.0128 54.4102 16.8191C54.4102 16.6865 54.426 16.5658 54.4577 16.454L54.8613 14.9269C54.9586 14.5559 55.1565 14.3697 55.4572 14.3697H57.8689L57.939 14.0791C57.9481 14.0419 57.9526 14.0076 57.9526 13.9734C57.9526 13.8288 57.8825 13.7573 57.7412 13.7573H55.1655L55.4753 12.5952H58.648C58.9792 12.5952 59.1455 12.8142 59.1455 13.2508C59.1443 13.367 59.1308 13.4757 59.1025 13.5785ZM57.558 15.5392H55.9434C55.7964 15.5392 55.6992 15.6257 55.6528 15.7985L55.5918 16.0086C55.5793 16.0622 55.5725 16.1114 55.5725 16.1576C55.5725 16.2931 55.6257 16.3617 55.732 16.3617H57.3364L57.558 15.5392ZM63.7857 12.5952L63.4714 13.7573H60.9048C60.7985 13.7573 60.7035 13.7886 60.621 13.8527C60.5384 13.9168 60.4853 13.9912 60.4638 14.0777L59.5344 17.5223H58.5111L59.6373 13.3119C59.7651 12.8336 60.0455 12.5952 60.4774 12.5952H63.7857Z" fill="black"/>
<path d="M53.3733 18.6243L53.0645 19.6561H50.8572C50.7423 19.6561 50.6532 19.6838 50.5901 19.7381C50.5563 19.7672 50.518 19.8227 50.4775 19.9034C50.4707 19.914 50.4685 19.9418 50.4685 19.9854C50.4685 20.0291 50.4673 20.0516 50.4639 20.0516C50.4572 20.0701 50.4549 20.0899 50.4549 20.1124C50.4549 20.2222 50.5248 20.2764 50.6656 20.2764H52.3637C52.5541 20.2764 52.7085 20.328 52.829 20.4325C52.9496 20.537 53.0093 20.6865 53.0093 20.8796C53.0093 20.9815 52.9902 21.0939 52.953 21.2143C52.8595 21.5106 52.722 21.9431 52.5417 22.5092C52.4921 22.6746 52.4324 22.791 52.3637 22.8611C52.2792 22.9524 52.1609 22.9986 52.0087 22.9986H48.8572L49.1704 21.9669H51.3733C51.5727 21.9669 51.7 21.8862 51.7564 21.7248C51.8037 21.586 51.833 21.5198 51.8454 21.5277C51.8487 21.5132 51.8499 21.4986 51.8499 21.4841C51.8499 21.3703 51.7699 21.3135 51.611 21.3135H49.913C49.7259 21.3135 49.5727 21.2606 49.4521 21.1547C49.3315 21.0489 49.2718 20.8968 49.2718 20.6997C49.2718 20.5979 49.2887 20.4881 49.3237 20.3703C49.5603 19.5608 49.682 19.1428 49.6887 19.1137C49.7575 18.7883 49.9355 18.6256 50.2217 18.6256H53.3733V18.6243ZM57.9558 19.7275L57.4691 21.3412H54.5226L54.4426 21.6217C54.4212 21.6918 54.4099 21.75 54.4099 21.7976C54.4099 21.9113 54.4719 21.9682 54.5969 21.9682H57.282L56.9733 23H54.0786C53.5299 23 53.2561 22.7989 53.2561 22.3955C53.2561 22.2817 53.2899 22.1084 53.3586 21.8743L54.215 18.9643C54.2837 18.7367 54.4505 18.6243 54.7152 18.6243H57.4601C57.8533 18.6243 58.0494 18.8148 58.0494 19.1957C58.0494 19.3386 58.0178 19.5158 57.9558 19.7275ZM56.8662 19.9418C56.873 19.9193 56.8753 19.8955 56.8753 19.8703C56.8753 19.7275 56.7986 19.6561 56.6465 19.6561H55.3372C55.2245 19.6561 55.1457 19.6653 55.0983 19.6838C55.033 19.7129 54.989 19.7685 54.9676 19.8479L54.8414 20.3095H56.7637L56.8662 19.9418ZM62.9733 18.6243L62.6601 19.6561H60.1023C59.9964 19.6561 59.9018 19.6838 59.8195 19.7407C59.7373 19.7976 59.6843 19.8637 59.6629 19.9404L58.7367 22.9986H57.717L58.8392 19.2606C58.9665 18.836 59.246 18.6243 59.6764 18.6243H62.9733ZM67.459 18.6243L64.41 23H62.6466L63.9277 18.6243H64.9125L63.9131 21.9682L66.1057 18.6243H67.459V18.6243ZM69.6528 18.619L68.3345 23H67.3148L68.6331 18.619H69.6528ZM72.819 23H70.1632C69.9762 23 69.823 22.9484 69.7024 22.8439C69.5818 22.7394 69.5221 22.5899 69.5221 22.3968C69.5221 22.2949 69.539 22.1852 69.5739 22.0674L70.4528 19.1137C70.5497 18.7883 70.7266 18.6256 70.9858 18.6256H74.1374L73.8286 19.6574H71.6213C71.4151 19.6574 71.2889 19.7394 71.2427 19.9047C71.2517 19.8651 71.0669 20.4815 70.6861 21.7553C70.6827 21.7698 70.6816 21.7844 70.6816 21.7989C70.6816 21.9127 70.7593 21.9695 70.9159 21.9695H73.1323L72.819 23ZM78.6219 19.7275L78.1351 21.3412H75.1886L75.1086 21.6217C75.0872 21.6918 75.0759 21.75 75.0759 21.7976C75.0759 21.9113 75.1379 21.9682 75.263 21.9682H77.947L77.6382 23H74.7436C74.1948 23 73.921 22.7989 73.921 22.3955C73.921 22.2817 73.9548 22.1084 74.0236 21.8743L74.8799 18.9643C74.9486 18.7367 75.1154 18.6243 75.3802 18.6243H78.125C78.5182 18.6243 78.7143 18.8148 78.7143 19.1957C78.7154 19.3386 78.685 19.5158 78.6219 19.7275ZM77.5323 19.9418C77.5391 19.9193 77.5413 19.8955 77.5413 19.8703C77.5413 19.7275 77.4647 19.6561 77.3126 19.6561H76.0033C75.8906 19.6561 75.8117 19.6653 75.7644 19.6838C75.6991 19.7129 75.6551 19.7685 75.6337 19.8479L75.5075 20.3095H77.4298L77.5323 19.9418Z" fill="black"/>
</svg>
