<svg width="26" height="26" viewBox="0 0 26 26" fill="none" xmlns="http://www.w3.org/2000/svg">
<path d="M15 19H9M15 19H20L18.595 17.595C18.4063 17.4063 18.2567 17.1822 18.1546 16.9357C18.0525 16.6891 18 16.4249 18 16.158V13C18.0002 11.7589 17.6156 10.5483 16.8992 9.53489C16.1829 8.52144 15.17 7.75496 14 7.341V7C14 6.46957 13.7893 5.96086 13.4142 5.58579C13.0391 5.21071 12.5304 5 12 5C11.4696 5 10.9609 5.21071 10.5858 5.58579C10.2107 5.96086 10 6.46957 10 7V7.341C7.67 8.165 6 10.388 6 13V16.159C6 16.697 5.786 17.214 5.405 17.595L4 19H9H15ZM15 19V20C15 20.7956 14.6839 21.5587 14.1213 22.1213C13.5587 22.6839 12.7956 23 12 23C11.2044 23 10.4413 22.6839 9.87868 22.1213C9.31607 21.5587 9 20.7956 9 20V19H15Z" stroke="#718096" stroke-width="2" stroke-linecap="round" stroke-linejoin="round"/>
<circle cx="21.5" cy="4.5" r="4.5" fill="#C11313"/>
</svg>
